<?xml version="1.0" standalone="no"?>
<!DOCTYPE svg PUBLIC "-//W3C//DTD SVG 20010904//EN"
 "http://www.w3.org/TR/2001/REC-SVG-20010904/DTD/svg10.dtd">
<svg version="1.0" xmlns="http://www.w3.org/2000/svg"
 width="260.000000pt" height="260.000000pt" viewBox="0 0 260.000000 260.000000"
 preserveAspectRatio="xMidYMid meet">
<metadata>
Created by potrace 1.14, written by Peter Selinger 2001-2017
</metadata>
<g transform="translate(0.000000,260.000000) scale(0.100000,-0.100000)"
fill="#000000" stroke="none">
<path d="M645 2049 c-55 -10 -116 -23 -136 -31 -65 -24 -226 -119 -277 -164
-144 -126 -242 -385 -228 -605 18 -298 132 -493 351 -604 216 -109 473 -141
734 -90 86 16 270 100 350 160 93 68 167 169 206 282 28 81 48 195 36 203 -12
7 -719 6 -726 -2 -4 -3 -8 -23 -11 -44 -15 -128 -58 -183 -120 -155 -31 14
-64 85 -70 149 -6 66 -5 248 1 302 13 109 58 200 99 200 35 0 65 -63 93 -205
l9 -39 363 -1 c199 0 364 2 366 5 7 14 -49 205 -80 267 -82 166 -256 288 -515
362 -91 25 -121 29 -225 28 -66 0 -165 -8 -220 -18z"/>
<path d="M2125 1297 c-62 -21 -97 -42 -138 -84 -84 -83 -119 -185 -112 -323
10 -206 93 -313 269 -350 210 -43 395 70 444 271 16 63 8 212 -13 274 -30 87
-90 153 -174 193 -66 30 -210 40 -276 19z"/>
</g>
</svg>
