<svg width="260" height="47" viewBox="0 0 408 72" fill="none" xmlns="http://www.w3.org/2000/svg">
<path d="M35.4369 71.776L31.8301 72C29.9967 72 28.1932 71.7909 26.4199 71.3727C25.2176 71.3727 23.5946 71.0591 21.5507 70.4319C14.6978 68.8189 9.58811 66.0261 6.22175 62.0535L5.41022 61.1126C2.79528 57.7673 1.09707 53.2719 0.315596 47.6266L0.180341 46.6857C0.0601135 45.7299 0 44.5949 0 43.2806C0 41.9365 0.255482 40.1294 0.766447 37.8594C2.66002 29.4661 6.64254 23.6714 12.714 20.4754L18.8005 17.2495C23.309 15.6366 28.9296 14.8301 35.6623 14.8301C38.2172 14.8301 40.5766 15.1587 42.7407 15.8158L43.6424 16.0846C43.6124 16.0846 43.5973 16.0697 43.5973 16.0398H43.6875C53.8767 18.7281 60.6546 23.1786 64.0209 29.3914L64.1111 29.705C65.6139 32.7218 66.6208 36.0971 67.1318 39.8307L66.0948 39.4723H37.8715L37.6461 37.8146C37.1652 34.3796 36.3537 32.0946 35.2115 30.9596L34.3098 30.4219C31.6648 30.6011 30.177 34.1854 29.8464 41.1749C29.8163 42.1307 29.7712 42.6982 29.7111 42.8774L29.7562 44.3111L29.8915 46.9098C29.8915 47.1189 29.9065 47.3429 29.9365 47.5818L30.3874 48.0299H29.8915C30.0417 50.2701 30.5076 51.9876 31.2891 53.1823C32.1006 54.3771 32.9122 54.9745 33.7237 54.9745C35.2566 54.9745 36.3086 54.0485 36.8797 52.1966C37.4507 50.3447 37.7363 48.6571 37.7363 47.1338C40.0506 47.0143 43.5372 46.9546 48.196 46.9546H49.9093L54.2374 46.9994H58.5656L67.267 47.0442C66.3353 56.6322 61.7817 63.4126 53.6062 67.3852C53.0051 67.5943 52.1785 67.9378 51.1266 68.4157L49.4133 69.2222C44.6343 71.0442 40.261 71.9552 36.2935 71.9552C35.8728 71.9552 35.5872 71.8955 35.4369 71.776Z" fill="#232323"/>
<path d="M94.8808 40.6372L95.3316 40.682H96.4137C97.4356 40.682 98.2321 40.6073 98.8032 40.458L101.238 40.1444C105.386 39.8457 107.88 38.7405 108.722 36.8289C109.143 35.8731 109.353 34.6633 109.353 33.1997C109.173 32.9011 109.083 32.3335 109.083 31.4972C109.083 30.6609 108.647 29.7797 107.775 28.8538C106.934 27.9278 105.927 27.4648 104.754 27.4648H104.529C101.644 27.4648 100.201 29.8992 100.201 34.7679C100.051 35.0068 99.7951 35.0965 99.4344 35.0367C99.1038 34.977 98.2772 34.9471 96.9547 34.9471H73.6908C73.8411 32.8861 74.3821 30.6609 75.3138 28.2713C77.0872 23.6714 80.5137 20.3709 85.5932 18.3696C90.7029 16.3385 95.7675 15.2334 100.787 15.0541L103.492 14.9197L104.935 14.7853C105.115 14.7853 105.295 14.8301 105.476 14.9197H106.062L108.091 14.8301C108.512 14.8301 109.458 14.9347 110.931 15.1437L112.239 15.323C112.449 15.3528 112.78 15.3678 113.23 15.3678C113.681 15.3678 114.628 15.4723 116.071 15.6814C117.514 15.8606 119.317 16.3684 121.481 17.2047C128.815 20.0722 133.263 25.5681 134.826 33.6926C135.487 37.1276 135.818 40.9359 135.818 45.1176C136.028 45.8046 136.134 46.4319 136.134 46.9994L135.908 50.0909V55.2881C135.938 55.3479 135.953 55.6017 135.953 56.0498L135.863 59.0965V59.4997C135.953 59.649 135.998 59.8581 135.998 60.1269L135.953 60.5302V61.4711C135.953 64.3086 136.389 66.9969 137.261 69.5358L137.712 70.5215H117.333L115.71 70.4767C114.508 70.4767 113.591 70.4916 112.96 70.5215C111.998 68.7293 111.081 66.28 110.21 63.1736C109.819 63.9801 109.143 64.906 108.181 65.9515C107.249 66.967 106.558 67.4748 106.107 67.4748C101.659 69.6254 98.2772 70.85 95.9628 71.1487C92.5364 71.7162 90.6879 72 90.4174 72C90.1769 72 90.0567 72 90.0567 72C82.8731 72 77.4479 69.5208 73.7809 64.5625C71.9475 62.0236 71.0307 59.0815 71.0307 55.7362C71.0307 48.4779 74.4272 44.0274 81.22 42.3846C82.9633 41.9664 86.3296 41.5333 91.3191 41.0853L92.8069 40.9508L94.8808 40.6372ZM109.669 51.0317L109.714 49.598C109.714 48.1045 109.594 46.6708 109.353 45.2968C108.692 45.6553 107.73 46.0585 106.468 46.5065C105.205 46.9546 104.198 47.3429 103.447 47.6714C102.696 47.9701 102.004 48.5227 101.373 49.3292C100.772 50.1058 100.471 51.1811 100.471 52.5551C100.471 53.9291 100.907 55.1836 101.779 56.3186C102.681 57.4536 103.657 58.0212 104.709 58.0212C106.964 58.0212 108.572 57.2147 109.533 55.6017L109.624 55.1537L109.669 52.3759V51.0317Z" fill="#232323"/>
<path d="M143.414 16.7567L155.407 16.7119H167.399L168.391 22.7156C169.083 26.9272 169.488 29.3167 169.609 29.8843H171.186C172.299 24.7766 174.433 21.1475 177.589 18.9969L179.392 17.9664C179.482 17.7872 180.023 17.4586 181.015 16.9807L180.835 17.0255L181.872 16.6223C184.817 15.4574 187.357 14.86 189.491 14.8301C189.942 14.8301 190.242 14.86 190.393 14.9197H192.061V39.9203C191.43 39.771 190.438 39.6963 189.085 39.6963C187.733 39.6963 186.335 39.8905 184.892 40.2788C183.48 40.6671 182.277 41.1749 181.286 41.8021C180.324 42.3995 179.482 43.1761 178.761 44.1319C176.537 47.089 175.424 51.5246 175.424 57.4387L175.515 62.1431V70.3871L159.464 70.4319H143.459L143.414 43.6839V16.7567Z" fill="#232323"/>
<path d="M264.038 43.2806C263.978 43.5793 263.948 43.7586 263.948 43.8183V44.1767C263.858 49.1052 262.716 53.5408 260.522 57.4835H260.567C257.501 62.1431 253.218 65.7274 247.718 68.2365C242.247 70.7455 236.852 72 231.532 72C226.212 72 221.794 71.4773 218.277 70.4319C214.79 69.4163 211.559 67.9228 208.584 65.9515C205.608 63.9801 203.399 62.0834 201.956 60.2614C198.53 55.9602 196.816 49.8818 196.816 42.0261C196.816 41.7573 196.862 41.5333 196.952 41.3541V40.6372C196.862 40.5177 196.816 40.3983 196.816 40.2788L196.907 39.7859H196.862C197.433 34.5588 198.545 31.1238 200.198 29.481C200.198 29.1525 200.408 28.7791 200.829 28.3609V28.4057L201.505 27.3304C205.052 22.8202 209.11 19.7287 213.678 18.056L215.256 17.4736C217.24 16.5177 220.02 15.8009 223.597 15.323L225.04 15.1885C225.25 15.1587 225.671 15.1288 226.302 15.0989C226.963 15.0691 227.429 15.0093 227.7 14.9197L229.638 14.9645C229.729 14.9347 229.834 14.9197 229.954 14.9197C230.074 14.9197 230.21 14.9347 230.36 14.9645L230.315 14.9197C230.495 15.0093 230.766 15.0541 231.126 15.0541C231.247 14.9347 231.457 14.8749 231.757 14.8749C238.28 14.8749 243.825 16.2041 248.394 18.8625L249.296 19.2657C259.124 23.9552 264.038 31.9602 264.038 43.2806ZM235.995 43.5495C235.875 37.6055 235.019 33.5881 233.426 31.4972C232.764 30.631 231.953 30.1979 230.991 30.1979C230.059 30.1979 229.233 30.7505 228.511 31.8556C227.79 32.9309 227.204 34.6335 226.753 36.9633C226.332 39.2931 226.122 41.369 226.122 43.191C226.122 44.9832 226.197 46.5364 226.347 47.8507C226.528 49.135 226.783 50.509 227.114 51.9726C227.444 53.4063 227.955 54.6161 228.647 55.6017C229.338 56.5576 230.119 57.0355 230.991 57.0355C234.327 57.0355 235.995 52.5401 235.995 43.5495Z" fill="#232323"/>
<path d="M270.327 0.044804L281.779 0C285.265 0 290.675 0.0298693 298.009 0.089608V70.4319H270.417L270.327 0.044804Z" fill="#232323"/>
<path d="M328.599 40.6372L329.049 40.682H330.131C331.153 40.682 331.95 40.6073 332.521 40.458L334.956 40.1444C339.103 39.8457 341.598 38.7405 342.44 36.8289C342.861 35.8731 343.071 34.6633 343.071 33.1997C342.891 32.9011 342.8 32.3335 342.8 31.4972C342.8 30.6609 342.365 29.7797 341.493 28.8538C340.651 27.9278 339.644 27.4648 338.472 27.4648H338.247C335.361 27.4648 333.919 29.8992 333.919 34.7679C333.768 35.0068 333.513 35.0965 333.152 35.0367C332.822 34.977 331.995 34.9471 330.673 34.9471H307.409C307.559 32.8861 308.1 30.6609 309.032 28.2713C310.805 23.6714 314.231 20.3709 319.311 18.3696C324.421 16.3385 329.485 15.2334 334.505 15.0541L337.21 14.9197L338.653 14.7853C338.833 14.7853 339.013 14.8301 339.194 14.9197H339.78L341.809 14.8301C342.229 14.8301 343.176 14.9347 344.649 15.1437L345.956 15.323C346.167 15.3528 346.497 15.3678 346.948 15.3678C347.399 15.3678 348.346 15.4723 349.789 15.6814C351.231 15.8606 353.035 16.3684 355.199 17.2047C362.533 20.0722 366.981 25.5681 368.544 33.6926C369.205 37.1276 369.536 40.9359 369.536 45.1176C369.746 45.8046 369.852 46.4319 369.852 46.9994L369.626 50.0909V55.2881C369.656 55.3479 369.671 55.6017 369.671 56.0498L369.581 59.0965V59.4997C369.671 59.649 369.716 59.8581 369.716 60.1269L369.671 60.5302V61.4711C369.671 64.3086 370.107 66.9969 370.979 69.5358L371.429 70.5215H351.051L349.428 70.4767C348.226 70.4767 347.309 70.4916 346.678 70.5215C345.716 68.7293 344.799 66.28 343.928 63.1736C343.537 63.9801 342.861 64.906 341.899 65.9515C340.967 66.967 340.276 67.4748 339.825 67.4748C335.376 69.6254 331.995 70.85 329.681 71.1487C326.254 71.7162 324.406 72 324.135 72C323.895 72 323.774 72 323.774 72C316.591 72 311.166 69.5208 307.499 64.5625C305.665 62.0236 304.749 59.0815 304.749 55.7362C304.749 48.4779 308.145 44.0274 314.938 42.3846C316.681 41.9664 320.047 41.5333 325.037 41.0853L326.525 40.9508L328.599 40.6372ZM343.387 51.0317L343.432 49.598C343.432 48.1045 343.311 46.6708 343.071 45.2968C342.41 45.6553 341.448 46.0585 340.185 46.5065C338.923 46.9546 337.916 47.3429 337.165 47.6714C336.413 47.9701 335.722 48.5227 335.091 49.3292C334.49 50.1058 334.189 51.1811 334.189 52.5551C334.189 53.9291 334.625 55.1836 335.497 56.3186C336.398 57.4536 337.375 58.0212 338.427 58.0212C340.681 58.0212 342.289 57.2147 343.251 55.6017L343.341 55.1537L343.387 52.3759V51.0317Z" fill="#232323"/>
<path d="M393.416 72C388.834 72 385.258 70.7579 382.688 68.2737C380.229 65.7896 379 62.2253 379 57.581C379 53.2607 380.341 49.7505 383.023 47.0503C385.705 44.3501 389.17 43 393.416 43C397.998 43 401.574 44.2961 404.145 46.8883C406.715 49.3724 408 52.9367 408 57.581C408 61.7933 406.659 65.2495 403.977 67.9497C401.295 70.6499 397.775 72 393.416 72Z" fill="#232323"/>
</svg>
